<svg aria-hidden="true" style="position: absolute; width: 0; height: 0; overflow: hidden;" version="1.1" xmlns="http://www.w3.org/2000/svg" xmlns:xlink="http://www.w3.org/1999/xlink">
<defs>
<symbol id="icon-footer_icon-Dribbble" viewBox="0 0 32 32">
<path fill="#e94b88" style="fill: var(--color1, #e94b88)" d="M16 29.333c-7.352 0-13.333-5.981-13.333-13.333s5.981-13.333 13.333-13.333c7.352 0 13.333 5.981 13.333 13.333s-5.981 13.333-13.333 13.333zM27.245 17.825c-0.39-0.123-3.525-1.058-7.094-0.487 1.49 4.093 2.096 7.427 2.212 8.12 2.555-1.728 4.374-4.464 4.882-7.633zM20.449 26.501c-0.169-0.999-0.831-4.481-2.43-8.636-0.025 0.009-0.050 0.017-0.075 0.025-6.424 2.238-8.73 6.693-8.934 7.112 1.6 1.247 3.504 2.044 5.515 2.308s4.057-0.016 5.924-0.809zM7.539 23.632c0.258-0.442 3.384-5.617 9.257-7.515 0.148-0.048 0.298-0.093 0.449-0.135-0.286-0.647-0.597-1.295-0.923-1.933-5.687 1.702-11.206 1.631-11.705 1.621-0.003 0.116-0.006 0.231-0.006 0.348-0.002 2.813 1.041 5.527 2.928 7.615zM4.852 13.685c0.509 0.007 5.202 0.027 10.529-1.388-1.887-3.354-3.922-6.175-4.222-6.587-3.186 1.503-5.568 4.44-6.306 7.974zM13.331 4.945c0.315 0.421 2.383 3.238 4.25 6.667 4.050-1.518 5.764-3.822 5.969-4.114-1.371-1.218-3.017-2.086-4.796-2.53s-3.64-0.452-5.423-0.023zM24.816 8.815c-0.24 0.325-2.148 2.771-6.359 4.49 0.265 0.543 0.519 1.094 0.756 1.65 0.084 0.197 0.166 0.393 0.245 0.588 3.789-0.477 7.555 0.287 7.93 0.367-0.022-2.589-0.929-5.093-2.572-7.094z"></path>
</symbol>
<symbol id="icon-footer_icon-LinkedIn" viewBox="0 0 32 32">
<path fill="#0077b5" style="fill: var(--color2, #0077b5)" d="M26.2 4h-20.4c-0.96 0-1.8 0.724-1.8 1.688v20.623c0 0.965 0.84 1.688 1.8 1.688h20.4c0.96 0 1.8-0.724 1.8-1.688v-20.623c0-0.844-0.84-1.688-1.8-1.688zM11.080 24.623h-3.6v-11.457h3.6v11.457zM9.28 11.477c-1.2 0-2.040-0.965-2.040-2.050s0.96-2.050 2.040-2.050c1.080 0 2.040 0.965 2.040 2.050 0.12 1.206-0.84 2.050-2.040 2.050zM24.4 24.623h-3.6v-5.548c0-1.327 0-3.015-1.8-3.015s-2.16 1.447-2.16 3.015v5.668h-3.6v-11.457h3.36v1.568c0.48-0.965 1.68-1.809 3.36-1.809 3.6 0 4.32 2.412 4.32 5.427v6.151h0.12z"></path>
</symbol>
<symbol id="icon-icon_footer-twitter" viewBox="0 0 32 32">
<path fill="#26a7de" style="fill: var(--color3, #26a7de)" d="M29.333 9.163c-0.92 0.394-1.97 0.657-3.153 0.788 1.051-0.657 1.97-1.708 2.365-2.89-1.051 0.657-2.233 1.051-3.415 1.314-0.92-1.051-2.365-1.708-3.941-1.708-3.021 0-5.386 2.365-5.386 5.255 0 0.394 0 0.788 0.131 1.182-4.466-0.263-8.407-2.365-11.166-5.517-0.525 0.788-0.788 1.708-0.788 2.627 0 1.839 0.92 3.415 2.365 4.466-0.92 0-1.708-0.263-2.496-0.657 0 0 0 0 0 0.131 0 2.627 1.839 4.729 4.335 5.255-0.394 0.131-0.92 0.131-1.445 0.131-0.394 0-0.657 0-1.051-0.131 0.657 2.102 2.627 3.678 4.992 3.678-1.839 1.445-4.204 2.233-6.699 2.233-0.394 0-0.92-0-1.314-0.131 2.365 1.576 5.255 2.365 8.276 2.365 9.852 0 15.369-8.144 15.369-15.107 0-0.263 0-0.525 0-0.657 1.445-0.657 2.365-1.576 3.021-2.627z"></path>
</symbol>
<symbol id="icon-logo_icon" viewBox="0 0 105 32">
<path fill="currentColor" style="fill: var(--color4, #fff)" d="M6.48 31.6h-6.48v-31.6h7.24c1.493 0 2.707 0.080 3.64 0.24 0.96 0.133 1.707 0.427 2.24 0.88s0.893 1.107 1.080 1.96c0.213 0.827 0.32 1.947 0.32 3.36v3.28c0 0.827-0.093 1.507-0.28 2.040s-0.427 0.96-0.72 1.28c-0.267 0.32-0.56 0.56-0.88 0.72-0.32 0.133-0.613 0.227-0.88 0.28v0.16c0.4 0.107 0.76 0.267 1.080 0.48 0.347 0.187 0.64 0.48 0.88 0.88s0.427 0.933 0.56 1.6c0.16 0.64 0.24 1.467 0.24 2.48v11.96h-6.52v-14c0-0.347-0.040-0.573-0.12-0.68-0.080-0.133-0.293-0.2-0.64-0.2h-0.76v14.88zM6.48 11.64h0.76c0.347 0 0.56-0.053 0.64-0.16 0.080-0.133 0.12-0.373 0.12-0.72v-4.32c0-0.347-0.040-0.573-0.12-0.68-0.080-0.133-0.293-0.2-0.64-0.2h-0.76v6.080zM29.702 26.92c0 1.12-0.093 2.013-0.28 2.68-0.16 0.667-0.48 1.187-0.96 1.56-0.453 0.347-1.093 0.573-1.92 0.68-0.8 0.107-1.853 0.16-3.16 0.16-1.28 0-2.333-0.053-3.16-0.16s-1.467-0.333-1.92-0.68c-0.453-0.373-0.773-0.893-0.96-1.56-0.16-0.667-0.24-1.56-0.24-2.68v-14.6c0-1.12 0.080-2.013 0.24-2.68 0.187-0.667 0.507-1.173 0.96-1.52 0.453-0.373 1.093-0.613 1.92-0.72s1.88-0.16 3.16-0.16c1.307 0 2.36 0.053 3.16 0.16 0.827 0.107 1.467 0.347 1.92 0.72 0.48 0.347 0.8 0.853 0.96 1.52 0.187 0.667 0.28 1.56 0.28 2.68v14.6zM22.662 25.8c0 0.347 0.040 0.587 0.12 0.72 0.080 0.107 0.28 0.16 0.6 0.16 0.347 0 0.56-0.053 0.64-0.16 0.080-0.133 0.12-0.373 0.12-0.72v-12.36c0-0.347-0.040-0.573-0.12-0.68-0.080-0.133-0.293-0.2-0.64-0.2-0.32 0-0.52 0.067-0.6 0.2-0.080 0.107-0.12 0.333-0.12 0.68v12.36zM38.298 0v8.72c0.347-0.48 0.773-0.813 1.28-1 0.533-0.187 1.187-0.28 1.96-0.28s1.4 0.093 1.88 0.28c0.48 0.16 0.84 0.427 1.080 0.8 0.267 0.373 0.44 0.88 0.52 1.52 0.107 0.613 0.16 1.373 0.16 2.28v14.6c0 0.933-0.053 1.72-0.16 2.36-0.080 0.613-0.253 1.107-0.52 1.48s-0.653 0.64-1.16 0.8c-0.507 0.16-1.16 0.24-1.96 0.24-0.907 0-1.64-0.093-2.2-0.28-0.56-0.213-0.987-0.547-1.28-1v1.080h-5.32v-31.6h5.72zM39.618 13.44c0-0.32-0.040-0.547-0.12-0.68-0.053-0.133-0.227-0.2-0.52-0.2-0.267 0-0.467 0.053-0.6 0.16-0.107 0.080-0.187 0.213-0.24 0.4v13c0.053 0.187 0.133 0.333 0.24 0.44 0.133 0.080 0.333 0.12 0.6 0.12 0.293 0 0.467-0.067 0.52-0.2 0.080-0.133 0.12-0.36 0.12-0.68v-12.36zM53.807 4.16h-5.68v-4.16h5.68v4.16zM53.807 31.6h-5.68v-23.96h5.68v23.96zM70.071 31.6h-5.76v-18.16c0-0.32-0.040-0.547-0.12-0.68-0.054-0.133-0.227-0.2-0.52-0.2-0.267 0-0.467 0.053-0.6 0.16-0.107 0.080-0.2 0.213-0.28 0.4v18.48h-5.72v-23.96h5.32v1.080c0.293-0.453 0.72-0.773 1.28-0.96 0.56-0.213 1.293-0.32 2.2-0.32 0.8 0 1.466 0.080 2 0.24 0.56 0.16 1 0.427 1.32 0.8s0.546 0.88 0.68 1.52c0.133 0.613 0.2 1.387 0.2 2.32v19.28zM78.925 31.6h-5.8v-5.64h5.8v5.64zM104.573 0l-3.28 31.6h-8.16l-1.080-22.92h-0.16l-1.32 22.92h-8.28l-2.44-31.6h6.52l0.68 22.16h0.16l0.96-22.16h8l0.68 22.16h0.16l1-22.16h6.56z"></path>
</symbol>
<symbol id="icon-skillset_icon-motion" viewBox="0 0 32 32">
<path fill="none" stroke="#5221e6" style="stroke: var(--color5, #5221e6)" stroke-linejoin="miter" stroke-linecap="butt" stroke-miterlimit="4" stroke-width="2" d="M31 16c0 8.284-6.716 15-15 15s-15-6.716-15-15c0-8.284 6.716-15 15-15s15 6.716 15 15z"></path>
<path fill="#5221e6" style="fill: var(--color5, #5221e6)" d="M21 16l-7.5 4.33v-8.66l7.5 4.33z"></path>
</symbol>
<symbol id="icon-skillset_icon-photography" viewBox="0 0 32 32">
<path fill="#5221e6" style="fill: var(--color5, #5221e6)" d="M29.828 8.236h-2.928l-0.673-3.034c-0.287-1.296-1.417-2.201-2.746-2.201h-10.164c-1.33 0-2.459 0.905-2.746 2.201l-0.673 3.034h-0.695v-1.295c0-0.73-0.595-1.323-1.325-1.323h-4.286c-0.731 0-1.325 0.594-1.325 1.323v1.295h-0.094c-1.198 0-2.172 0.973-2.172 2.169v14.688c0 1.196 0.975 2.169 2.172 2.169h10.075c1.773 1.147 3.886 1.814 6.152 1.814s4.378-0.667 6.151-1.814h5.278c1.198 0 2.172-0.973 2.172-2.169v-14.688c0-1.196-0.974-2.169-2.172-2.169zM11.79 5.471c0.16-0.72 0.787-1.223 1.526-1.223h10.164c0.739 0 1.366 0.503 1.526 1.223l0.613 2.765h-1.070c-1.773-1.147-3.886-1.814-6.151-1.814s-4.378 0.667-6.152 1.814h-1.070l0.613-2.765zM3.516 6.941c0-0.042 0.034-0.075 0.075-0.075h4.286c0.042 0 0.075 0.034 0.075 0.075v1.295h-4.437v-1.295zM5.019 26.013v-6.777c0-0.345-0.28-0.624-0.625-0.624s-0.625 0.279-0.625 0.624v6.777h-1.597c-0.509 0-0.922-0.413-0.922-0.921v-14.688c0-0.508 0.414-0.921 0.922-0.921h8.477c-2.212 2.068-3.597 5.008-3.597 8.265s1.385 6.197 3.597 8.265h-5.631zM24.169 26.013c-0.745 0.52-1.563 0.942-2.436 1.248-1.044 0.366-2.167 0.566-3.335 0.566s-2.29-0.2-3.335-0.566c-0.873-0.306-1.691-0.728-2.436-1.248-2.613-1.823-4.325-4.848-4.325-8.265s1.712-6.441 4.325-8.265c0.745-0.52 1.563-0.942 2.436-1.248 1.045-0.366 2.167-0.566 3.335-0.566s2.29 0.2 3.335 0.566c0.873 0.306 1.691 0.728 2.436 1.248 2.613 1.823 4.325 4.848 4.325 8.265s-1.712 6.441-4.325 8.265zM30.75 25.092c0 0.508-0.414 0.921-0.922 0.921h-3.68c2.212-2.068 3.597-5.008 3.597-8.265s-1.385-6.197-3.597-8.265h3.68c0.509 0 0.922 0.413 0.922 0.921v14.688z"></path>
<path fill="#5221e6" style="fill: var(--color5, #5221e6)" d="M18.37 10.111c-4.248 0-7.704 3.456-7.704 7.704s3.456 7.704 7.704 7.704c0.619 0 1.235-0.074 1.831-0.219 0.315-0.077 0.508-0.394 0.431-0.709s-0.394-0.508-0.709-0.431c-0.505 0.123-1.028 0.186-1.553 0.186-3.601 0-6.53-2.929-6.53-6.53s2.929-6.53 6.53-6.53c3.601 0 6.53 2.929 6.53 6.53 0 1.312-0.387 2.578-1.121 3.659-0.182 0.268-0.112 0.633 0.157 0.815s0.633 0.112 0.815-0.156c0.866-1.277 1.323-2.77 1.323-4.318 0-4.248-3.456-7.704-7.704-7.704z"></path>
<path fill="#5221e6" style="fill: var(--color5, #5221e6)" d="M4.741 11.296c-1.307 0-2.37 1.063-2.37 2.37s1.063 2.37 2.37 2.37c1.307 0 2.37-1.063 2.37-2.37s-1.063-2.37-2.37-2.37zM4.741 14.764c-0.605 0-1.097-0.492-1.097-1.097s0.492-1.097 1.097-1.097 1.097 0.492 1.097 1.097c0 0.605-0.492 1.097-1.097 1.097z"></path>
<path fill="#5221e6" style="fill: var(--color5, #5221e6)" d="M23.692 23.625c-0.008-0.037-0.019-0.075-0.034-0.111s-0.033-0.070-0.055-0.102c-0.021-0.033-0.046-0.063-0.073-0.090s-0.058-0.052-0.090-0.074c-0.033-0.021-0.067-0.040-0.102-0.055s-0.073-0.026-0.111-0.034c-0.076-0.015-0.155-0.015-0.232 0-0.038 0.008-0.075 0.019-0.111 0.034s-0.070 0.033-0.102 0.055c-0.032 0.022-0.062 0.047-0.090 0.074s-0.052 0.057-0.073 0.090c-0.021 0.032-0.040 0.066-0.055 0.102s-0.026 0.073-0.034 0.111c-0.008 0.038-0.012 0.078-0.012 0.116s0.004 0.078 0.012 0.116c0.008 0.038 0.019 0.075 0.034 0.111s0.033 0.070 0.055 0.102c0.021 0.033 0.046 0.063 0.073 0.090s0.058 0.052 0.090 0.073c0.033 0.021 0.067 0.040 0.102 0.055s0.073 0.026 0.111 0.034c0.038 0.008 0.077 0.012 0.116 0.012s0.078-0.004 0.116-0.012c0.038-0.008 0.075-0.019 0.111-0.034s0.070-0.033 0.102-0.055c0.032-0.021 0.063-0.046 0.090-0.073 0.11-0.11 0.173-0.263 0.173-0.419 0-0.038-0.004-0.078-0.011-0.116z"></path>
</symbol>
<symbol id="icon-Skillset_icon-product" viewBox="0 0 32 32">
<path fill="#5221e6" style="fill: var(--color5, #5221e6)" d="M30.222 23.111v7.111h-12.444v-7.111h12.444zM30.222 1.778v14.222h-12.444v-14.222h12.444zM10.667 16h-8.889v14.222h8.889v-14.222zM10.667 1.778v7.111h-8.889v-7.111h8.889zM17.778 0c-0.982 0-1.778 0.796-1.778 1.778v14.222c0 0.982 0.796 1.778 1.778 1.778h12.444c0.982 0 1.778-0.796 1.778-1.778v-14.222c0-0.982-0.796-1.778-1.778-1.778h-12.444zM17.778 21.333c-0.982 0-1.778 0.796-1.778 1.778v7.111c0 0.982 0.796 1.778 1.778 1.778h12.444c0.982 0 1.778-0.796 1.778-1.778v-7.111c0-0.982-0.796-1.778-1.778-1.778h-12.444zM0 16c0-0.982 0.796-1.778 1.778-1.778h8.889c0.982 0 1.778 0.796 1.778 1.778v14.222c0 0.982-0.796 1.778-1.778 1.778h-8.889c-0.982 0-1.778-0.796-1.778-1.778v-14.222zM1.778 0c-0.982 0-1.778 0.796-1.778 1.778v7.111c0 0.982 0.796 1.778 1.778 1.778h8.889c0.982 0 1.778-0.796 1.778-1.778v-7.111c0-0.982-0.796-1.778-1.778-1.778h-8.889z"></path>
</symbol>
<symbol id="icon-Skillset_icon-visual" viewBox="0 0 32 32">
<path fill="#5221e6" style="fill: var(--color5, #5221e6)" d="M17.221 1.2l13.578 13.578 1.2-1.2-13.578-13.578-1.2 1.2z"></path>
<path fill="#5221e6" style="fill: var(--color5, #5221e6)" d="M19.234 7.601c-0.736-0.736-1.846-0.95-2.803-0.54l-9.423 4.039c-1.113 0.477-1.971 1.406-2.352 2.56-0.893 2.709-2.048 6.287-2.981 9.346-0.466 1.529-0.879 2.934-1.175 4.039-0.148 0.552-0.27 1.036-0.355 1.427-0.079 0.364-0.144 0.723-0.144 0.981v0.352l2.194 2.194h0.352c0.259 0 0.617-0.065 0.981-0.144 0.391-0.085 0.875-0.206 1.427-0.355 1.105-0.297 2.51-0.709 4.039-1.175 3.059-0.933 6.638-2.088 9.346-2.981 1.154-0.381 2.082-1.239 2.56-2.352l4.039-9.423c0.41-0.957 0.196-2.067-0.54-2.803l-5.164-5.164zM17.099 8.622c0.319-0.137 0.689-0.065 0.934 0.18l5.164 5.164c0.245 0.245 0.317 0.615 0.18 0.934l-4.039 9.424c-0.287 0.669-0.843 1.181-1.531 1.408-2.702 0.891-6.268 2.042-9.31 2.97-1.522 0.464-2.906 0.87-3.984 1.16-0.539 0.145-0.994 0.258-1.347 0.335-0.075 0.016-0.143 0.030-0.207 0.043l8.671-8.672c0.946 0.452 2.114 0.286 2.898-0.498 0.994-0.994 0.994-2.606 0-3.6s-2.606-0.994-3.6 0c-0.784 0.784-0.95 1.952-0.498 2.898l-8.672 8.672c0.012-0.063 0.027-0.132 0.043-0.207 0.077-0.353 0.19-0.808 0.335-1.347 0.289-1.078 0.696-2.462 1.16-3.984 0.928-3.042 2.079-6.608 2.97-9.31 0.227-0.688 0.739-1.244 1.408-1.531l9.424-4.039z"></path>
</symbol>
<symbol id="icon-skillset_logo-assets" viewBox="0 0 91 32">
<path fill="#8491a0" style="fill: var(--color6, #8491a0)" d="M59.494 1.067h-28.204c-0.084 0-0.164 0.029-0.229 0.083s-0.107 0.128-0.122 0.21c-0.015 0.082 0 0.167 0.042 0.24s0.107 0.128 0.186 0.157l25.511 8.352c0.029 0.010 0.061 0.009 0.089-0.003s0.052-0.032 0.067-0.059l3.807-7.061c0.107-0.198 0.16-0.421 0.156-0.646s-0.068-0.445-0.184-0.639c-0.115-0.193-0.279-0.353-0.475-0.465s-0.417-0.17-0.642-0.17z"></path>
<path fill="#8491a0" style="fill: var(--color6, #8491a0)" d="M30.94 30.59c0 0.077 0.026 0.151 0.073 0.212s0.113 0.104 0.188 0.122 0.153 0.012 0.223-0.019c0.070-0.031 0.128-0.084 0.165-0.152l4.907-9.090c0.111-0.206 0.277-0.379 0.478-0.499s0.432-0.184 0.667-0.184h12.519c0.235 0 0.465-0.063 0.667-0.184s0.367-0.293 0.478-0.5l3.741-6.936c0.008-0.016 0.013-0.034 0.012-0.051s-0.005-0.035-0.015-0.051c-0.009-0.015-0.022-0.028-0.038-0.037s-0.033-0.014-0.051-0.014h-22.713c-0.345 0-0.676 0.137-0.92 0.381s-0.381 0.575-0.381 0.92v16.081z"></path>
</symbol>
<symbol id="icon-skillset_logo-cbre" viewBox="0 0 91 32">
<path fill="#8491a0" style="fill: var(--color6, #8491a0)" d="M41.219 15.101c2.865-0.946 3.386-3.337 3.379-5.285-0.006-2.974-2.118-5.548-8.372-5.548l-11.672-0.002v22.354h11.642c6.291 0 8.605-3.21 8.605-6.426 0-3.894-3.582-5.093-3.582-5.093zM30.093 9.13l7.887 0.006c0.887 0.156 1.533 0.906 1.533 1.786 0 0.9-0.692 1.747-1.606 1.871l-7.808 0.012-0.005-3.674zM37.573 21.411h-7.48v-3.743l7.681 0.002c0.953 0.109 1.676 0.897 1.676 1.833 0 1.020-0.855 1.892-1.877 1.907z"></path>
<path fill="#8491a0" style="fill: var(--color6, #8491a0)" d="M70.938 4.27h19.724l-0.011 4.879h-14.233l0.014 3.603h12.831v4.904h-12.831v3.899h14.235l-0.003 5.112h-19.726v-22.397z"></path>
<path fill="#8491a0" style="fill: var(--color6, #8491a0)" d="M59.465 4.299h-11.928v22.361h5.477v-9.047c0 0 6.031-0.007 6.032-0.007 1.727 0.026 3.071 1.433 3.071 3.168v5.867l5.361-0.002-0.011-7.217c0-3.343-3.249-4.331-3.249-4.331s3.322-0.988 3.322-4.941c0-4.836-4.181-5.851-8.076-5.851zM62.455 11.237c-0.098 0.735-0.838 1.533-1.761 1.533l-7.698 0.003v-3.581h7.702c0.919 0 1.64 0.674 1.757 1.557v0.488z"></path>
<path fill="#8491a0" style="fill: var(--color6, #8491a0)" d="M21.002 21.257c-0.079 0.002-7.487 0.144-10.044-0.104-4.12-0.401-5.578-3.434-5.578-5.91 0-3.087 2.117-5.358 5.396-5.785 1.56-0.203 10.091-0.107 10.181-0.107l0.179 0.002 0.018-5.085-0.181 0.001-9.656 0.018c-1.075 0.065-2.857 0.173-4.682 0.915-1.753 0.798-3.279 2.025-4.418 3.55-1.45 1.942-2.218 4.247-2.218 6.665 0 0.761 0.060 1.515 0.184 2.239 0.695 3.39 2.931 6.196 6.137 7.705 1.083 0.473 2.752 1.041 6.119 1.229 0.007 0 1.814 0.038 1.814 0.038l6.909 0.007 0.019-5.382-0.18 0.002z"></path>
</symbol>
<symbol id="icon-skillset_logo-epiq" viewBox="0 0 91 32">
<path fill="#8491a0" style="fill: var(--color6, #8491a0)" d="M28.28 15.038c-1.477 4.495-5.090 7.027-9.975 7.027-6.076 0-10.838-4.821-10.838-10.992 0-6.088 4.762-11.074 10.633-11.074 5.46 0 10.715 4.495 10.674 11.973h-17.776c0.451 4.373 3.818 6.947 7.307 6.947 2.997 0 5.131-1.43 6.281-3.882h3.694zM24.914 8.868c-0.862-3.433-3.736-5.721-6.815-5.721-2.914 0-5.993 2.125-6.896 5.721h13.711zM41.047 22.066c-3.038 0-5.666-1.634-7.184-3.677v12.545h-3.49v-30.402h3.366v3.35c1.478-2.124 4.187-3.882 7.307-3.882 6.075 0 10.55 4.945 10.55 10.993 0 6.13-4.475 11.073-10.55 11.073zM41.047 3.188c-3.9 0-7.184 3.514-7.184 7.805 0 4.331 3.284 7.886 7.184 7.886 3.941 0 7.061-3.555 7.061-7.886 0-4.29-3.12-7.805-7.061-7.805zM53.116 0.532h3.49v21.044h-3.49v-21.044zM58.164 11.087c0-6.141 5.008-11.080 11.348-11.080s11.349 4.939 11.349 11.080c0 6.141-5.054 10.991-11.349 10.991s-11.348-4.85-11.348-10.991zM70.47 3.359c-5.776-0.503-8.989 3.875-8.989 8.975 0 5.099 4.223 9.234 9.429 9.234 1.949 0.004 3.852-0.59 5.451-1.699l-1.307-3.312c1.35-1.4 2.131-3.336 2.131-5.474 0-4.227-2.965-7.372-6.715-7.723z"></path>
<path fill="#8491a0" style="fill: var(--color6, #8491a0)" d="M66.361 13.202l10.295 8.337h5.478l-10.029-8.337z"></path>
</symbol>
<symbol id="icon-skillset_logo-fresh" viewBox="0 0 91 32">
<path fill="#8491a0" style="fill: var(--color6, #8491a0)" d="M55.987 5.333h-9.962c-5.978 0-10.825 4.163-10.825 10.141v7.028c4.364-8.921 14.971-15.189 20.787-17.169z"></path>
<path fill="#8491a0" style="fill: var(--color6, #8491a0)" d="M36.267 27.733h8.828c5.979 0 10.825-4.847 10.825-10.825v-11.057c-9.217 5.117-15.524 13.084-19.654 21.882z"></path>
</symbol>
<symbol id="icon-Group-86" viewBox="0 0 128 32">
<path fill="#5b6876" style="fill: var(--color1, #5b6876)" d="M32 16c0 8.837-7.163 16-16 16s-16-7.163-16-16c0-8.837 7.163-16 16-16s16 7.163 16 16z"></path>
<path fill="#5b6876" style="fill: var(--color1, #5b6876)" d="M80 16c0 8.837-7.163 16-16 16s-16-7.163-16-16c0-8.837 7.163-16 16-16s16 7.163 16 16z"></path>
<path fill="#5b6876" style="fill: var(--color1, #5b6876)" d="M128 16c0 8.837-7.163 16-16 16s-16-7.163-16-16c0-8.837 7.163-16 16-16s16 7.163 16 16z"></path>
</symbol>
</defs>
</svg>
